<?xml version="1.0" encoding="UTF-8"?>
<svg id="katman_2" data-name="katman 2" xmlns="http://www.w3.org/2000/svg" viewBox="0 0 270.97 56.97">
  <defs>
    <style>
      .cls-1 {
        fill: #fff;
      }
    </style>
  </defs>
  <g id="katman_1" data-name="katman 1">
    <g>
      <path class="cls-1" d="M58.05.02l1.38-.02c0,.28.22.49.65.63.21.04.52.08.95.12.43.03.95.05,1.53.05h15.65c1.15,0,1.92-.05,2.33-.17.4-.12.62-.32.67-.63h1.38c0,.27,0,.48-.02.62-.01.15-.05.35-.12.62-.05.28-.09.5-.13.67-.04.16-.12.39-.22.67.24.76.46,1.62.68,2.6.12.57.21,1.05.27,1.44.07.39.1.76.1,1.12h-1.53c-.32-1.69-.84-2.87-1.58-3.57-.73-.7-1.9-1.13-3.53-1.3h-2.58l-.17,3.64v9.86c0,2.74.05,4.62.16,5.64.11,1.03.3,1.77.57,2.25.24.41.65.76,1.23,1.04.53.24,1.36.45,2.47.62v1.24c-.53,0-1.01-.01-1.44-.04-.44-.03-1.25-.13-2.43-.28-1.18-.16-2.52-.39-4-.7-1.52.32-2.92.57-4.2.75-.72.09-1.36.16-1.93.21-.58.04-1.15.06-1.73.06v-1.24c1.12-.12,1.98-.31,2.57-.57.59-.26,1-.62,1.25-1.1.22-.46.38-1.13.47-2.03.1-.9.15-2.47.15-4.71v-7.78c0-.82,0-1.54-.01-2.15,0-.61-.02-1.21-.02-1.79,0-.91-.05-1.89-.14-2.93h-2.61c-1.52,0-2.67.36-3.44,1.09-.78.72-1.33,1.98-1.66,3.78h-1.53c.07-.84.19-1.69.36-2.52.17-.84.41-1.72.7-2.63-.13-.4-.25-.82-.34-1.26-.03-.15-.06-.37-.09-.64-.04-.28-.05-.5-.05-.67"/>
      <path class="cls-1" d="M104.79,13.82c1.92,4.3,3.71,7.39,5.39,9.27,1.67,1.87,3.47,2.81,5.4,2.81h.18v1.26c-.32.05-.64.1-.96.16-.35.05-.69.07-1.01.07-.3,0-.67.02-1.13.06-.46.04-.73.05-.82.05-.87,0-1.69-.04-2.43-.13-.74-.08-1.39-.21-1.96-.39-1.15-.36-2.12-.92-2.9-1.69-1.17-1.13-2.47-3.37-3.89-6.68l-.48-1.12c-.26-.59-.68-1.05-1.26-1.36-.58-.32-1.33-.47-2.27-.47l-1.4-.06v2.75c0,3.19.25,5.2.75,6.03.5.83,1.45,1.33,2.85,1.51v1.28c-1.02,0-2.1-.09-3.24-.27-1.14-.18-2.38-.43-3.72-.75-1.27.28-2.53.52-3.78.71-.84.12-1.49.2-1.95.24-.46.04-.87.06-1.23.06l-.02-1.28c1.38-.15,2.33-.65,2.84-1.51.25-.41.44-1.12.57-2.1.13-.98.19-2.25.19-3.8v-9.02c0-3.17-.27-5.19-.81-6.03-.54-.84-1.6-1.36-3.16-1.53V.65c.57,0,1.08.01,1.56.04.47.03,1.15.11,2.05.24.6.08,1.11.17,1.55.25.44.09.92.21,1.42.36,1.12-.3,2.38-.53,3.76-.71,1.39-.18,2.78-.27,4.18-.27,1.83,0,3.39.13,4.71.41s2.41.7,3.31,1.28c1.76,1.1,2.64,2.81,2.64,5.12,0,1.45-.42,2.73-1.28,3.85-.85,1.12-2.06,1.98-3.64,2.58M95.23,13.97l1.03.11h.85c1.67,0,2.96-.47,3.85-1.41s1.33-2.31,1.33-4.09c0-1.95-.47-3.47-1.39-4.55-.93-1.09-2.24-1.62-3.94-1.62h-.84c-.12,0-.25,0-.4.02-.15.01-.29.04-.43.07l-.05,2.27v9.21Z"/>
      <path class="cls-1" d="M126.58.44l2.69.43,2.74-.43,5.2,13.14,1.3,3.32c2.35,6.01,4.34,9.01,5.99,9.01h.11l-.02,1.27c-.56,0-1.06-.01-1.5-.04-.44-.03-1.12-.12-2.01-.26-1.17-.19-2.3-.43-3.38-.71-1.17.32-2.31.57-3.41.75-.59.09-1.14.16-1.64.21-.5.04-1.01.06-1.55.06v-1.27c.42,0,.79-.05,1.12-.15.33-.1.61-.23.84-.38.39-.29.58-.71.58-1.28,0-.32-.12-.9-.36-1.73-.24-.83-.58-1.81-1.02-2.93l-.64-1.71-1.99-.04h-4.74c-.22,0-.58,0-1.05.02-.47.01-.84.02-1.1.02l-.69,1.71c-.4.97-.73,1.93-.99,2.86-.26.94-.39,1.6-.39,1.98,0,.49.16.87.48,1.14.31.22.9.39,1.78.5v1.27c-.82,0-1.66-.08-2.52-.25-.46-.08-.87-.17-1.22-.26-.35-.08-.75-.21-1.2-.36-.79.22-1.62.43-2.5.61-.35.06-.76.12-1.21.18-.46.06-.85.09-1.18.09l-.02-1.27c1.06,0,2.2-.87,3.43-2.61,1.23-1.74,2.53-4.31,3.91-7.71l.92-2.24L126.58.44ZM127.35,6.14c-.7,1.6-1.37,3.2-2.03,4.83-.65,1.62-1.26,3.21-1.83,4.78h7.38c-.09-.28-.31-.9-.65-1.84-.33-.95-.61-1.71-.82-2.29-.61-1.71-1.29-3.53-2.04-5.48"/>
      <path class="cls-1" d="M142.25.65c.56,0,1.13.04,1.7.11.51.08.95.15,1.33.2.37.06.89.15,1.55.27.67.13,1.35.27,2.06.44,1.22-.29,2.42-.53,3.6-.72.5-.07,1.03-.14,1.59-.2.56-.06,1.06-.09,1.49-.09v1.27c-.63,0-1.16.13-1.61.38-.44.25-.79.61-1.06,1.06-.47.84-.71,2.78-.71,5.83v1.9c0,1.27.02,2.41.05,3.43.04,1.02.09,1.95.18,2.79.15,1.55.4,2.75.75,3.61.5,1.19,1.26,2.12,2.3,2.77,1.03.65,2.28.98,3.75.98,1.39,0,2.61-.28,3.65-.85,1.04-.56,1.85-1.41,2.43-2.54.39-.76.69-1.78.87-3.08.19-1.3.29-3.26.29-5.87v-3.55c0-2.92-.25-4.74-.76-5.49-.51-.75-1.53-1.2-3.06-1.35V.65c.34,0,.71.02,1.1.06.39.04.82.1,1.29.19.88.13,1.84.32,2.85.55l2.75-.53c.73-.11,1.12-.16,1.17-.18.42-.06.79-.09,1.1-.09v1.27c-.66,0-1.22.1-1.69.31s-.82.5-1.08.88c-.49.72-.73,2.33-.73,4.82v5.77c0,1.3-.04,2.47-.13,3.5-.08,1.03-.21,1.92-.39,2.67-.32,1.46-.88,2.71-1.67,3.77-.95,1.29-2.27,2.27-3.96,2.96-1.69.68-3.68,1.02-5.98,1.02-.96,0-1.84-.05-2.66-.16-.81-.11-1.59-.28-2.34-.52-1.42-.45-2.63-1.13-3.62-2.03-1.14-1.03-1.96-2.35-2.46-3.97-.5-1.62-.75-3.9-.75-6.86v-5.86c0-2.69-.22-4.39-.67-5.08-.45-.7-1.29-1.1-2.53-1.21V.65Z"/>
      <path class="cls-1" d="M175.69.65c.49,0,.96.02,1.43.06.47.04.94.1,1.4.19.85.13,1.64.32,2.37.55.89-.27,1.64-.47,2.24-.61.61-.13,1.09-.19,1.43-.19.78,0,1.58.96,2.4,2.9l.2.46c1.36,3.29,2.61,6.15,3.77,8.58,1.26,2.7,2.31,4.8,3.18,6.29.51-1,.98-1.94,1.4-2.81.43-.88.94-1.95,1.54-3.21.6-1.26,1.13-2.38,1.58-3.35l2.87-6.19.16-.32c.75-1.58,1.48-2.36,2.2-2.36.39,0,1.2.22,2.43.65l.39.15c.57-.15,1.29-.29,2.15-.44.05-.01.38-.06.99-.13.61-.08,1.26-.15,1.96-.22v1.26c-1.02.11-1.72.41-2.09.91-.38.5-.56,1.62-.56,3.39l.02,1.43.05,1.56.51,11.28c0,1.14.07,2.08.22,2.82.15.74.35,1.29.59,1.64.45.64,1.23.96,2.35.96v1.27c-.61,0-1.19-.04-1.75-.11-.21-.02-.77-.12-1.67-.27-.9-.16-1.76-.38-2.58-.64-.86.22-1.83.45-2.93.66-.96.16-1.64.26-2.02.3-.39.04-.79.06-1.2.06v-1.27c.47,0,.88-.1,1.22-.29.34-.2.62-.48.83-.85.41-.7.61-1.9.61-3.62v-1.19l-.07-1.76-.29-5.74-.16-2.75-.21-2.52c-1.49,2.97-2.98,6.12-4.48,9.44-.49,1.1-.97,2.21-1.45,3.32-.48,1.11-.98,2.3-1.5,3.57-.57,1.37-1.07,2.6-1.49,3.68h-2.36l-5.06-11.1-3.95-8.55-.55,8.87c0,.73-.02,1.49-.06,2.26-.09,1.81-.13,2.74-.13,2.77,0,1.54.25,2.66.75,3.36.26.36.59.63,1.01.83.41.19.91.29,1.49.29l-.02,1.27c-.45,0-.84-.02-1.18-.06-.33-.04-.82-.1-1.44-.21-.89-.16-1.69-.35-2.41-.57-.69.2-1.48.38-2.37.53-.89.16-1.44.24-1.66.27-.21.03-.5.04-.86.04v-1.28c1.04-.21,1.8-.6,2.26-1.15.47-.56.81-1.68,1.05-3.36.12-.93.25-2,.38-3.19.14-1.19.21-2.44.21-3.74l.06-.98.26-4.83.11-2.79c0-1.4-.26-2.38-.78-2.95-.26-.3-.63-.53-1.1-.71-.47-.18-1.03-.27-1.67-.27V.65Z"/>
      <path class="cls-1" d="M19.75,35.77l.97.36c-.1.39-.2.76-.32,1.11-.12.35-.26.69-.43,1.02.03.27.08.57.12.9.04.33.08.66.1.98,0,.27,0,.63.03,1.06.02.44.03.68.03.73v.46h-1.42c-.22-1.78-.8-3.12-1.75-4.04-.95-.92-2.25-1.38-3.9-1.38-2.12,0-3.81.83-5.08,2.5-1.27,1.67-1.9,3.92-1.9,6.75s.68,5.13,2.03,6.81c1.36,1.69,3.17,2.53,5.44,2.53.95,0,1.6-.14,1.97-.43.37-.28.55-.88.55-1.79v-1.9c0-1.31-.22-2.22-.67-2.75-.44-.53-1.24-.85-2.4-.97v-.96c.48,0,.95.02,1.39.05.44.04.97.1,1.59.19.97.13,1.89.3,2.76.51.87-.2,1.65-.37,2.36-.5.19-.04.53-.08,1.02-.14.49-.06.87-.1,1.12-.13v.97c-.74.28-1.26.68-1.57,1.22-.31.53-.46,1.31-.46,2.34v1.14c0,.63.07,1.04.21,1.24.15.17.43.26.84.26v1.02c-1.39.64-2.89,1.14-4.52,1.49-1.62.35-3.25.52-4.88.52-4.08,0-7.27-.92-9.56-2.77-2.3-1.85-3.44-4.4-3.44-7.65s1.16-6.02,3.49-7.99c2.33-1.98,5.49-2.97,9.49-2.97,1.04,0,2.21.11,3.52.33,1.3.22,2.05.33,2.26.33.17,0,.32-.04.46-.11.14-.08.32-.2.54-.37"/>
      <path class="cls-1" d="M33.64,35.77l2.1.34,2.13-.34,4.06,10.25,1.01,2.59c1.83,4.69,3.39,7.03,4.67,7.03h.08v.99c-.45,0-.84,0-1.19-.03-.34-.02-.87-.09-1.57-.2-.91-.15-1.79-.34-2.64-.56-.91.25-1.8.45-2.66.59-.46.07-.89.13-1.28.16-.39.03-.79.05-1.21.05v-.99c.33,0,.62-.04.88-.12.26-.08.47-.18.65-.3.3-.22.45-.55.45-1,0-.25-.09-.7-.28-1.35-.19-.65-.45-1.42-.8-2.29l-.5-1.33-1.55-.03h-3.7c-.18,0-.45,0-.82.01-.37.01-.66.01-.86.01l-.54,1.33c-.31.76-.57,1.5-.77,2.23-.2.73-.3,1.24-.3,1.54,0,.38.12.68.37.89.24.18.7.3,1.39.39v.99c-.64,0-1.3-.07-1.97-.19-.36-.07-.68-.13-.95-.2-.28-.07-.58-.17-.94-.28-.62.17-1.27.34-1.95.47-.28.05-.59.1-.95.14-.36.05-.67.07-.92.07v-.99c.81,0,1.7-.68,2.66-2.04.96-1.36,1.98-3.36,3.05-6.01l.72-1.75,4.12-10.07ZM34.24,40.22c-.54,1.24-1.07,2.5-1.58,3.77-.51,1.26-.98,2.51-1.43,3.73h5.75c-.07-.22-.24-.71-.51-1.44-.26-.74-.48-1.33-.64-1.79-.47-1.33-1-2.76-1.59-4.27"/>
      <path class="cls-1" d="M62.73,46.21c1.49,3.35,2.9,5.77,4.2,7.23,1.3,1.46,2.71,2.19,4.21,2.19h.14v.98c-.25.04-.5.08-.75.12-.28.04-.54.06-.79.06-.23,0-.53.01-.88.04-.35.03-.57.04-.64.04-.68,0-1.32-.03-1.89-.1-.58-.06-1.09-.17-1.53-.3-.9-.28-1.65-.72-2.26-1.32-.91-.88-1.93-2.63-3.04-5.21l-.37-.87c-.2-.46-.53-.82-.98-1.06-.45-.25-1.04-.36-1.77-.36l-1.09-.05v2.15c0,2.49.19,4.06.59,4.7.39.65,1.13,1.04,2.22,1.18v1c-.79,0-1.64-.07-2.53-.21-.89-.14-1.85-.34-2.9-.59-.99.22-1.97.41-2.95.56-.66.1-1.16.16-1.52.19-.36.03-.68.05-.96.05v-1c1.06-.12,1.8-.51,2.2-1.18.19-.32.34-.87.44-1.64.1-.77.15-1.75.15-2.97v-7.04c0-2.47-.21-4.04-.63-4.71-.42-.66-1.24-1.06-2.47-1.2v-.97c.44,0,.85.01,1.22.03.36.02.9.09,1.6.19.46.06.87.13,1.21.2.34.07.71.17,1.11.28.88-.23,1.85-.42,2.93-.55,1.08-.14,2.17-.21,3.26-.21,1.42,0,2.64.1,3.67.32,1.03.21,1.88.55,2.58,1,1.38.86,2.06,2.19,2.06,3.99,0,1.13-.33,2.13-1,3-.66.87-1.61,1.55-2.84,2.02M55.28,46.33l.8.08h.66c1.31,0,2.31-.37,3-1.1.7-.73,1.04-1.8,1.04-3.19,0-1.52-.36-2.71-1.09-3.55-.72-.85-1.75-1.27-3.07-1.27h-.65c-.09,0-.19,0-.31.01-.11.01-.23.03-.34.06l-.04,1.77v7.19Z"/>
      <path class="cls-1" d="M69.33,35.44h1.08c0,.21.17.37.51.48.16.03.41.07.74.09.34.02.74.04,1.2.04h12.21c.89,0,1.5-.04,1.82-.13.31-.09.49-.25.53-.49h1.08c0,.21,0,.37-.01.48,0,.11-.04.27-.1.49-.04.22-.07.39-.1.53-.03.13-.09.3-.18.52.19.59.36,1.27.53,2.03.09.44.16.82.21,1.12.05.31.08.6.08.88h-1.19c-.25-1.32-.66-2.24-1.23-2.79-.57-.54-1.49-.88-2.75-1.01h-2.01l-.14,2.84v7.69c0,2.13.04,3.6.12,4.4.08.8.23,1.38.44,1.76.18.32.51.6.96.81.42.18,1.06.35,1.93.49v.97c-.41,0-.79,0-1.13-.03-.35-.02-.98-.1-1.9-.22-.92-.12-1.96-.3-3.12-.54-1.19.25-2.28.44-3.28.59-.56.07-1.06.13-1.51.16-.45.03-.9.05-1.35.05v-.97c.88-.1,1.54-.24,2-.44s.78-.49.98-.86c.17-.35.29-.88.37-1.58.08-.7.12-1.93.12-3.67v-6.07c0-.64,0-1.2-.01-1.68,0-.48-.01-.95-.02-1.4,0-.71-.04-1.47-.11-2.29h-2.04c-1.19,0-2.08.28-2.69.85-.6.56-1.04,1.55-1.3,2.95h-1.19c.06-.66.15-1.32.28-1.97.13-.66.32-1.34.55-2.05-.1-.31-.19-.64-.26-.98-.02-.12-.04-.29-.07-.5-.03-.22-.04-.39-.04-.52"/>
      <path class="cls-1" d="M90.29,35.94c.53,0,1.02.03,1.49.08.21.02.68.1,1.4.21.72.11,1.43.28,2.13.49,1.06-.27,2.32-.47,3.79-.6,1.46-.13,3.25-.19,5.38-.19.82,0,1.37.06,1.64.17.27.11.41.31.41.6,0,.16-.04.32-.13.49-.08.18-.2.35-.35.53l.22,1.42c.06.42.08.81.08,1.19v.57h-1.14c0-.56-.07-1.04-.22-1.43-.14-.39-.35-.7-.63-.93-.52-.44-1.53-.65-3.05-.65h-2.8l-.08,2.3v4.85h2.35c1.11,0,1.87-.15,2.29-.45.42-.3.67-.85.75-1.65h1.22c0,.21-.01.44-.05.7-.03.26-.08.53-.13.82-.09.55-.21,1.03-.36,1.46.16.55.29,1.09.39,1.64.03.16.06.37.1.63.03.26.05.53.05.8h-1.22c0-.4-.05-.74-.16-1.02-.1-.28-.26-.5-.46-.65-.39-.29-1.19-.43-2.41-.43h-2.36v4.17c0,1.56.21,2.55.62,2.95.43.38,1.4.57,2.92.57,1.76,0,2.97-.25,3.65-.75.68-.51,1.11-1.45,1.32-2.83h1.31c-.06.65-.15,1.26-.28,1.81-.13.55-.3,1.11-.51,1.67l.26.55c.05.14.08.28.08.42,0,.44-.24.75-.71.93-.49.16-1.59.24-3.3.24-1.23,0-2.28-.01-3.17-.04-.89-.03-1.63-.07-2.23-.15-1.14-.11-2.16-.32-3.08-.61-.74.19-1.58.37-2.5.53-.65.1-1.06.16-1.24.18-.45.06-.88.08-1.29.08v-.94c1.06-.11,1.8-.51,2.2-1.18.19-.33.34-.88.44-1.65.1-.77.15-1.76.15-2.99v-6.94c0-2.46-.2-4.03-.59-4.73-.39-.7-1.13-1.13-2.22-1.3v-.97Z"/>
      <path class="cls-1" d="M128.69,50.04v-7.5c0-2.36-.2-3.88-.61-4.55-.2-.34-.5-.6-.9-.79-.39-.19-.87-.28-1.42-.28v-.99c.35,0,.62,0,.82.03.2.02.65.08,1.35.19.7.11,1.34.25,1.93.41.58-.14,1.23-.27,1.94-.39.71-.12,1.15-.19,1.34-.21.18-.02.43-.03.76-.03v.99c-1.12,0-1.88.49-2.29,1.46-.41.97-.61,3.33-.61,7.08v6.76c.03.78.05,1.47.07,2.08.02.61.03,1.26.03,1.97v.69s-1.26-.34-1.26-.34l-1.95.17-.65-.79c-5.53-6.72-9.63-11.52-12.33-14.39v4.05c0,.79.01,1.52.03,2.19.06,2,.09,3.02.09,3.08,0,.66.03,1.24.09,1.71.07.47.15.89.25,1.25.14.53.45.94.95,1.24.26.16.54.28.85.36.31.09.67.13,1.06.13v.99c-.35,0-.7-.02-1.05-.06-.35-.04-.76-.09-1.25-.17-.77-.12-1.49-.26-2.18-.43-.79.19-1.52.35-2.19.46-.57.08-.96.14-1.17.16-.21.02-.47.03-.79.03v-.99c.57,0,1.06-.11,1.46-.33.4-.22.71-.53.93-.95.42-.81.62-2.67.62-5.62v-5.2c0-2.83-.2-4.61-.61-5.34-.41-.73-1.21-1.16-2.4-1.28v-.99c.58,0,1.19.06,1.82.18.32.05.65.1.97.18.33.08.67.16,1.01.26.62-.21,1.14-.37,1.55-.47.42-.1.76-.15,1.04-.15.38,0,1.94,1.66,4.7,4.98,2.75,3.32,5.43,6.36,8.01,9.13"/>
      <path class="cls-1" d="M148.99,35.6l1.27.18c-.05.24-.09.42-.12.54-.03.12-.09.28-.16.49-.11.37-.23.7-.35.99l.19,1.54c.03.32.04.55.05.7,0,.14.01.36.01.66v.73h-1.33c0-.7-.11-1.32-.32-1.87-.21-.55-.53-1.03-.93-1.46-.74-.79-1.75-1.18-3.03-1.18-1.05,0-1.88.27-2.5.81-.62.53-.94,1.25-.94,2.15,0,1.44,1.68,2.84,5.04,4.2l.41.17c1.96.79,3.35,1.67,4.17,2.61.81.95,1.22,2.13,1.22,3.54,0,1.99-.71,3.58-2.15,4.76-1.43,1.19-3.37,1.78-5.81,1.78-.59,0-1.16-.04-1.72-.11-.55-.08-1.13-.19-1.74-.36l-1.73-.47c-.19,0-.36.06-.51.18-.14.11-.26.29-.35.54l-1.18-.24c.03-.26.06-.44.08-.55.02-.11.06-.29.11-.55.05-.25.1-.47.15-.65.05-.18.13-.45.25-.8-.14-.6-.26-1.25-.35-1.95-.03-.33-.06-.65-.08-.96-.02-.3-.03-.64-.03-1.02v-.37h1.39c.22,1.9.81,3.38,1.76,4.42.95,1.04,2.18,1.57,3.7,1.57,1.08,0,1.96-.3,2.64-.89.68-.6,1.02-1.37,1.02-2.34,0-.86-.28-1.57-.84-2.13-.56-.56-1.96-1.3-4.2-2.21-2.1-.83-3.57-1.73-4.42-2.69-.85-.96-1.28-2.16-1.28-3.6,0-1.85.67-3.34,2-4.46,1.33-1.12,3.11-1.68,5.33-1.68.9,0,1.82.1,2.74.3l1.51.29c.24,0,.44-.05.61-.15.17-.1.29-.25.39-.44"/>
      <path class="cls-1" d="M153.63,35.94c.52,0,1.02.03,1.49.08.21.02.68.1,1.4.21.72.11,1.43.28,2.13.49,1.06-.27,2.32-.47,3.78-.6,1.46-.13,3.25-.19,5.38-.19.82,0,1.37.06,1.64.17.27.11.41.31.41.6,0,.16-.04.32-.13.49-.08.18-.2.35-.35.53l.22,1.42c.06.42.09.81.09,1.19v.57h-1.14c0-.56-.07-1.04-.22-1.43-.14-.39-.35-.7-.63-.93-.52-.44-1.53-.65-3.05-.65h-2.8l-.08,2.3v4.85h2.35c1.11,0,1.87-.15,2.29-.45.42-.3.67-.85.75-1.65h1.22c0,.21-.01.44-.05.7-.03.26-.07.53-.13.82-.09.55-.21,1.03-.36,1.46.16.55.29,1.09.39,1.64.03.16.06.37.1.63.03.26.05.53.05.8h-1.22c0-.4-.05-.74-.16-1.02-.1-.28-.26-.5-.46-.65-.39-.29-1.19-.43-2.41-.43h-2.36v4.17c0,1.56.21,2.55.62,2.95.43.38,1.4.57,2.92.57,1.75,0,2.97-.25,3.65-.75.68-.51,1.11-1.45,1.32-2.83h1.31c-.06.65-.15,1.26-.28,1.81-.13.55-.3,1.11-.51,1.67l.26.55c.05.14.08.28.08.42,0,.44-.24.75-.71.93-.49.16-1.59.24-3.3.24-1.23,0-2.29-.01-3.17-.04-.89-.03-1.63-.07-2.23-.15-1.14-.11-2.16-.32-3.08-.61-.74.19-1.57.37-2.5.53-.65.1-1.06.16-1.23.18-.45.06-.88.08-1.29.08v-.94c1.06-.11,1.8-.51,2.2-1.18.19-.33.34-.88.44-1.65.1-.77.15-1.76.15-2.99v-6.94c0-2.46-.2-4.03-.59-4.73-.39-.7-1.13-1.13-2.22-1.3v-.97Z"/>
      <path class="cls-1" d="M188.55,46.21c1.5,3.35,2.9,5.77,4.2,7.23,1.3,1.46,2.71,2.19,4.21,2.19h.14v.98c-.25.04-.5.08-.75.12-.27.04-.54.06-.79.06-.23,0-.53.01-.88.04-.35.03-.57.04-.64.04-.68,0-1.32-.03-1.89-.1-.58-.06-1.09-.17-1.53-.3-.9-.28-1.65-.72-2.26-1.32-.91-.88-1.92-2.63-3.04-5.21l-.37-.87c-.2-.46-.53-.82-.98-1.06-.45-.25-1.04-.36-1.77-.36l-1.09-.05v2.15c0,2.49.19,4.06.59,4.7.39.65,1.13,1.04,2.22,1.18v1c-.79,0-1.64-.07-2.53-.21-.89-.14-1.85-.34-2.9-.59-.99.22-1.97.41-2.95.56-.66.1-1.16.16-1.52.19-.35.03-.68.05-.96.05v-1c1.07-.12,1.8-.51,2.2-1.18.19-.32.34-.87.45-1.64.1-.77.15-1.75.15-2.97v-7.04c0-2.47-.21-4.04-.63-4.71-.42-.66-1.24-1.06-2.46-1.2v-.97c.44,0,.85.01,1.22.03.36.02.9.09,1.6.19.46.06.87.13,1.21.2.34.07.71.17,1.11.28.88-.23,1.85-.42,2.93-.55,1.08-.14,2.17-.21,3.26-.21,1.42,0,2.64.1,3.67.32,1.03.21,1.88.55,2.58,1,1.38.86,2.06,2.19,2.06,3.99,0,1.13-.33,2.13-1,3-.66.87-1.61,1.55-2.84,2.02M181.1,46.33l.8.08h.66c1.31,0,2.31-.37,3-1.1.7-.73,1.04-1.8,1.04-3.19,0-1.52-.36-2.71-1.09-3.55-.72-.85-1.75-1.27-3.08-1.27h-.65c-.09,0-.19,0-.31.01-.11.01-.23.03-.34.06l-.04,1.77v7.19Z"/>
      <path class="cls-1" d="M193.68,35.94c.52,0,1.02.03,1.51.1.06,0,.51.08,1.32.21.81.13,1.53.29,2.15.48.79-.19,1.62-.36,2.47-.5.56-.09.99-.16,1.29-.19.52-.07.98-.1,1.39-.1v.98c-.6.08-1.02.23-1.26.45-.24.22-.36.55-.36,1.01,0,.63.39,2,1.18,4.1.4,1.07.87,2.24,1.4,3.51.53,1.27,1.17,2.71,1.91,4.34,1.47-3.77,2.48-6.5,3.05-8.2.56-1.7.84-2.86.84-3.49,0-.53-.14-.91-.42-1.17-.27-.25-.75-.43-1.42-.53v-.99c.26,0,.54.01.85.05.31.03.65.08,1.01.15.69.1,1.4.25,2.14.43.29-.08.6-.14.93-.21.33-.07.65-.12.98-.18.32-.05.65-.09.97-.14.32-.04.64-.08.95-.1v.99c-.38,0-.72.07-1.03.21-.31.14-.61.34-.89.62-.5.47-1.08,1.45-1.76,2.94-.42.94-.88,2.04-1.4,3.29-.55,1.34-1.08,2.63-1.58,3.87-.17.42-.52,1.35-1.08,2.8-.29.76-.66,1.73-1.11,2.92-.39,1.02-.77,2.04-1.15,3.05l-1.11-.26-1.57.26-2.52-6c-3.82-9.13-6.33-13.7-7.53-13.7h-.14v-.99Z"/>
      <path class="cls-1" d="M217.29,35.94c.34,0,.69.02,1.04.06.35.04.89.11,1.62.21.73.11,1.66.28,2.81.52,1.13-.22,2.13-.4,3-.54.44-.07.88-.12,1.33-.18.44-.05.83-.08,1.16-.08v.97c-1.09.11-1.84.51-2.24,1.21-.4.69-.6,2.29-.6,4.78v6.53c0,2.57.2,4.22.6,4.93.4.7,1.15,1.14,2.24,1.31v.97c-.36,0-.69-.01-.99-.03-.3-.02-.87-.1-1.7-.22-.83-.12-1.76-.3-2.79-.54-1.06.22-2.07.41-3.02.56-.59.08-1.05.14-1.4.18-.35.04-.71.06-1.07.06v-.97c1.08-.11,1.82-.51,2.21-1.18.19-.33.34-.89.44-1.65.1-.77.15-1.76.15-2.98v-6.93c0-2.45-.2-4.03-.59-4.72-.39-.69-1.13-1.13-2.22-1.3v-.97Z"/>
      <path class="cls-1" d="M249.77,35.77l.96.36c-.04.19-.08.39-.13.58-.05.19-.11.37-.19.56-.11.33-.25.66-.42.99.05.33.09.65.13.97s.08.73.12,1.24c.05.51.07,1.03.07,1.57v.37h-1.46c-.11-.92-.31-1.72-.6-2.39-.28-.67-.68-1.24-1.18-1.71-.95-.92-2.24-1.39-3.87-1.39-2.08,0-3.74.81-4.99,2.45-1.24,1.63-1.86,3.84-1.86,6.63,0,2.97.65,5.29,1.94,6.96,1.29,1.67,3.07,2.5,5.32,2.5,1.59,0,2.89-.4,3.88-1.19.99-.79,1.63-1.94,1.91-3.44h1.41c-.06.53-.14,1.04-.27,1.54-.09.51-.21,1.07-.37,1.68l.21.68.13.63c-.47.24-1,.46-1.58.66-.58.19-1.2.37-1.88.53-1.3.28-2.66.42-4.07.42-3.98,0-7.12-.94-9.41-2.8-2.29-1.87-3.44-4.41-3.44-7.61s1.16-5.98,3.48-7.97c2.32-1.99,5.45-2.99,9.37-2.99,1.04,0,2.21.11,3.51.33,1.3.22,2.05.33,2.26.33.17,0,.32-.04.45-.11.14-.08.32-.2.54-.37"/>
      <path class="cls-1" d="M253.01,35.94c.52,0,1.02.03,1.49.08.21.02.68.1,1.4.21.72.11,1.43.28,2.13.49,1.06-.27,2.32-.47,3.79-.6,1.46-.13,3.26-.19,5.38-.19.82,0,1.37.06,1.64.17.27.11.41.31.41.6,0,.16-.04.32-.13.49-.08.18-.2.35-.35.53l.22,1.42c.06.42.08.81.08,1.19v.57h-1.14c0-.56-.07-1.04-.22-1.43-.14-.39-.35-.7-.63-.93-.52-.44-1.53-.65-3.05-.65h-2.8l-.08,2.3v4.85h2.35c1.11,0,1.87-.15,2.29-.45.42-.3.67-.85.75-1.65h1.22c0,.21-.01.44-.05.7-.03.26-.08.53-.13.82-.09.55-.21,1.03-.36,1.46.16.55.29,1.09.39,1.64.03.16.06.37.1.63.03.26.05.53.05.8h-1.22c0-.4-.05-.74-.16-1.02-.1-.28-.26-.5-.46-.65-.39-.29-1.19-.43-2.41-.43h-2.36v4.17c0,1.56.21,2.55.62,2.95.43.38,1.4.57,2.92.57,1.76,0,2.97-.25,3.65-.75.68-.51,1.11-1.45,1.31-2.83h1.31c-.06.65-.15,1.26-.28,1.81-.13.55-.3,1.11-.51,1.67l.26.55c.05.14.08.28.08.42,0,.44-.24.75-.71.93-.49.16-1.59.24-3.3.24-1.23,0-2.29-.01-3.17-.04-.89-.03-1.63-.07-2.23-.15-1.14-.11-2.16-.32-3.08-.61-.74.19-1.57.37-2.5.53-.65.1-1.06.16-1.24.18-.45.06-.88.08-1.29.08v-.94c1.06-.11,1.8-.51,2.2-1.18.19-.33.34-.88.44-1.65.1-.77.15-1.76.15-2.99v-6.94c0-2.46-.2-4.03-.59-4.73-.39-.7-1.13-1.13-2.22-1.3v-.97Z"/>
    </g>
  </g>
</svg>